<svg width="428" height="236" viewBox="0 0 428 236" fill="none" xmlns="http://www.w3.org/2000/svg">
<g filter="url(#filter0_f_853_6183)">
<rect x="44.2891" y="17.9932" width="129.711" height="183.014" fill="url(#paint0_linear_853_6183)"/>
</g>
<g opacity="0.3">
<path d="M63.4906 182.462C76.575 176.252 91.3809 173.723 105.78 175.395C108.301 182.49 111.002 189.521 113.427 196.658C99.247 192.463 83.5373 193.914 70.3745 200.664C68.0997 194.585 66.2021 188.356 63.4906 182.462Z" fill="white"/>
<path d="M181.269 141.851C188.532 136.735 196.775 133.069 205.321 130.7C207.613 136.773 209.786 142.895 212.021 148.989C203.431 151.04 195.384 155.067 188.488 160.56C185.361 154.765 183.99 148.239 181.213 142.291L181.269 141.851Z" fill="white"/>
<path d="M319.809 89.0662C332.991 82.7288 347.959 80.121 362.501 81.8261C364.774 88.9791 367.543 95.9646 370.018 103.058C355.649 98.8275 339.724 100.409 326.473 107.4C324.252 101.289 321.961 95.2029 319.809 89.0662Z" fill="white"/>
<path d="M34.2979 206.533C41.905 196.309 51.9687 187.919 63.4995 182.459C66.2109 188.352 68.1085 194.581 70.3833 200.66C58.3496 206.789 48.6639 217.221 43.2885 229.598C39.7154 222.185 37.8437 214.087 34.3474 206.633L34.2979 206.533Z" fill="white"/>
<path d="M205.311 130.708C222.525 126.037 241.277 127.635 257.514 134.975C256.863 136.548 255.42 138.122 255.91 139.934C258.211 147.287 261.565 154.314 263.466 161.793C249.545 149.882 229.916 144.643 212.01 148.996C209.776 142.903 207.603 136.78 205.311 130.708Z" fill="white"/>
<path d="M287.672 118.08C295.229 105.542 306.671 95.4389 319.825 89.0594C321.977 95.196 324.267 101.282 326.488 107.394C312.459 114.695 301.838 127.949 297.443 143.106C293.353 135.279 291.422 126.515 287.753 118.482L287.672 118.08Z" fill="white"/>
<path d="M334.638 234.732C332.633 226.682 328.493 219.312 326.794 211.184C336.261 216.049 346.988 218.228 357.597 217.693L357.789 218.003C359.773 224.201 362.064 230.306 364.44 236.374C354.527 237.795 344.342 237.192 334.638 234.732Z" fill="white"/>
<path d="M160.218 163.468C165.703 155.182 172.601 147.665 180.927 142.194L181.206 142.295C183.983 148.243 185.354 154.77 188.481 160.564L188.508 160.62C179.742 167.737 173.234 177.476 169.725 188.184C165.859 180.236 163.621 171.617 160.218 163.468Z" fill="white"/>
<path d="M-25.7056 221.991C-8.90578 223.135 7.29055 230.15 20.0006 241.127C21.9029 228.706 26.7882 216.691 34.3455 206.635C37.8419 214.089 39.7136 222.187 43.2867 229.6C37.4276 243.201 36.8447 259.044 42.0732 272.938C46.3215 284.825 54.6886 295.061 65.2258 301.945C65.554 303.528 65.9132 305.106 66.4463 306.64C68.9498 313.454 71.5516 320.232 73.7929 327.135C53.4124 320.82 35.8742 305.795 26.783 286.46C25.3318 283.126 23.5313 279.965 22.263 276.558C15.1646 259.6 -0.484499 246.722 -18.353 242.628C-20.7788 235.74 -23.5304 228.964 -25.7056 221.991Z" fill="white"/>
<path d="M105.785 175.393C121.457 177.217 136.547 183.856 148.388 194.298C150.266 183.373 154.122 172.754 160.223 163.465C163.626 171.614 165.865 180.234 169.731 188.181C166.057 199.892 166.027 212.724 169.942 224.379C175.123 240.406 187.694 253.66 203.225 260.072C204.822 267.793 208.607 274.853 210.729 282.435C191.568 278.747 173.947 267.609 162.515 251.785C156.908 244.236 153.317 235.481 149.497 226.96C142.417 212.386 128.961 201.197 113.431 196.656C111.006 189.519 108.306 182.489 105.785 175.393Z" fill="white"/>
<path d="M362.507 81.827C380.012 83.8467 396.76 91.9438 409.127 104.512C416.716 112.164 422.682 121.435 426.472 131.525C427.638 134.131 427.87 137.21 426.625 139.831C424.694 144.431 418.91 146.814 414.304 144.938C411.254 143.863 409.174 141.104 408.24 138.092C401.907 121.275 387.255 108.026 370.024 103.059C367.55 95.9656 364.781 88.9801 362.507 81.827Z" fill="white"/>
<path d="M276.7 147.285C278.401 137.151 281.847 127.186 287.39 118.52L287.739 118.49C291.407 126.523 293.338 135.287 297.429 143.114C294.09 154.952 294.433 167.837 298.757 179.376C303.65 193.033 313.961 204.504 326.783 211.191C328.482 219.319 332.622 226.689 334.627 234.739C315.536 229.932 298.425 217.658 287.942 200.972C284.769 196.131 282.551 190.765 280.015 185.586C276.604 176.425 270.823 168.22 263.465 161.794C261.564 154.315 258.21 147.288 255.909 139.935C255.419 138.123 256.862 136.549 257.513 134.976C264.442 138.16 270.94 142.28 276.7 147.285Z" fill="white"/>
<path d="M357.782 218.003L358.108 217.747C361.791 217.092 365.544 216.752 369.141 215.663C372.483 214.844 375.826 212.86 379.354 213.879C384.445 214.983 387.849 220.676 386.453 225.683C385.669 228.903 383.127 231.558 379.983 232.56C374.949 234.362 369.729 235.597 364.456 236.419L364.433 236.375C362.058 230.307 359.766 224.201 357.782 218.003Z" fill="white"/>
</g>
<rect x="51.5" y="39.0999" width="129" height="157.801" rx="10.8252" fill="white"/>
<path d="M76.7771 54.1827C78.462 53.6707 80.2411 53.4825 81.9947 53.6411C81.9968 54.758 81.9905 55.875 82.0053 56.9919C80.2432 56.7677 78.443 57.048 76.8025 57.7111L76.7348 57.6931C76.6788 56.8808 76.7306 56.0664 76.7052 55.253C76.6946 54.8945 76.7253 54.537 76.7771 54.1827Z" fill="#E53417"/>
<path d="M103 53.645C105.479 53.4123 108.02 53.8755 110.247 54.9935C110.237 56.2881 110.259 57.5826 110.23 58.8783C108.187 57.3658 105.564 56.6752 103.04 56.9904C103.031 55.8745 103.091 54.7566 103 53.645Z" fill="#ED530F"/>
<path d="M124.415 54.0226C125.889 53.6239 127.437 53.5171 128.957 53.6376C128.969 54.7535 128.96 55.8704 128.962 56.9863C127.454 56.8118 125.917 56.9884 124.479 57.4697C124.315 56.3496 124.478 55.2147 124.38 54.0903L124.415 54.0226Z" fill="#F36A0A"/>
<path d="M149.899 53.6515C152.402 53.4041 154.973 53.8641 157.222 54.9958C157.168 56.2851 157.204 57.5765 157.186 58.8679C155.114 57.3386 152.448 56.6564 149.896 57.0054C149.897 55.8874 149.886 54.7695 149.899 53.6515Z" fill="#FB8803"/>
<path d="M81.9941 53.6421C83.4675 53.7785 84.9113 54.1678 86.264 54.7643V54.7781C86.2048 56.0325 86.2503 57.289 86.2365 58.5445C84.9641 57.7206 83.5088 57.1854 82.0047 56.9929C81.9899 55.8759 81.9963 54.759 81.9941 53.6421Z" fill="#E73A16"/>
<path d="M96.8682 55.8157C98.699 54.6121 100.819 53.8496 103.003 53.6465C103.094 54.7581 103.033 55.876 103.043 56.9919C100.738 57.2732 98.5594 58.388 96.9623 60.0707C96.8216 58.663 96.9961 57.2446 96.8703 55.8348L96.8682 55.8157Z" fill="#EB4C11"/>
<path d="M128.954 53.6345C132.01 53.8936 134.945 55.2559 137.135 57.3977C136.937 57.6134 136.612 57.7827 136.584 58.1042C136.523 59.4273 136.651 60.76 136.517 62.08C134.97 59.3364 132.108 57.3342 128.959 56.9831C128.957 55.8672 128.967 54.7504 128.954 53.6345Z" fill="#F57208"/>
<path d="M143.001 56.444C144.96 54.8639 147.403 53.9056 149.903 53.6497C149.889 54.7676 149.901 55.8856 149.9 57.0035C147.204 57.3568 144.708 58.8724 143.106 61.0618C142.906 59.5567 143.11 58.0273 142.99 56.5138L143.001 56.444Z" fill="#F98005"/>
<path d="M143.719 78.0512C143.869 76.6329 143.634 75.1987 143.838 73.7856C145.081 75.1289 146.685 76.1125 148.431 76.6509L148.443 76.7122C148.399 77.8301 148.409 78.9513 148.436 80.0713C146.751 79.717 145.141 79.02 143.719 78.0512Z" fill="#F98005"/>
<path d="M119.741 56.273C121.115 55.2577 122.672 54.4496 124.339 54.0562L124.378 54.0889C124.476 55.2132 124.313 56.3481 124.477 57.4682L124.478 57.4787C122.643 58.1123 121.019 59.3022 119.822 60.8252C119.665 59.3138 119.811 57.7897 119.741 56.273Z" fill="#F2650B"/>
<path d="M72.1374 56.7597C73.4668 55.5719 75.0893 54.7342 76.7784 54.1821C76.7266 54.5364 76.6959 54.8939 76.7065 55.2525C76.7319 56.0658 76.68 56.8802 76.7361 57.6925L76.7234 57.756C75.4172 58.3504 74.221 59.1965 73.267 60.2732C72.8841 60.6836 72.5752 61.1542 72.2326 61.5974L72.2008 61.5836C72.0951 60.0014 72.2283 58.4138 72.1289 56.8316L72.1374 56.7597Z" fill="#E42F18"/>
<path d="M72.1201 77.2047C72.2576 75.578 72.0545 73.9397 72.228 72.3162C73.3195 74.0232 74.9092 75.4119 76.7749 76.2115L76.7728 76.2242C76.6416 77.3929 76.7484 78.5733 76.7157 79.7473C75.0361 79.2111 73.4655 78.3438 72.1201 77.2047Z" fill="#E42F18"/>
<path d="M77.2128 87.8019C77.6528 87.0234 78.719 86.7357 79.4975 87.1662C80.0379 87.4518 80.2971 88.0779 80.295 88.6681C80.3013 89.6052 80.2939 90.5424 80.2971 91.4795C80.0062 91.4795 79.7143 91.4795 79.4245 91.4795C79.4203 90.6619 79.4287 89.8432 79.4213 89.0256C79.4065 88.6607 79.3769 88.2567 79.1156 87.9764C78.8057 87.6506 78.2716 87.6443 77.894 87.8484C77.4603 88.0938 77.2583 88.6142 77.2689 89.0954C77.2668 89.8887 77.2689 90.682 77.27 91.4752C76.977 91.4784 76.684 91.4795 76.391 91.4826C76.3561 90.0188 76.4249 88.5528 76.3477 87.09C76.6279 87.09 76.9072 87.09 77.1875 87.0911C77.1991 87.327 77.2097 87.5639 77.2128 87.8019Z" fill="#E42F18"/>
<path d="M86.2657 54.7781C88.912 55.9521 91.1151 58.0388 92.5218 60.5603C93.5604 58.666 95.057 57.0129 96.8699 55.8336C96.9957 57.2435 96.8212 58.6618 96.9619 60.0696C95.2146 61.9215 94.1876 64.4462 94.2141 66.9983C94.2003 69.1686 94.9491 71.3146 96.2458 73.0471C96.2056 73.3221 96.1707 73.5981 96.1665 73.8773C96.1697 75.1254 96.1908 76.3734 96.1464 77.6204C93.2262 75.4004 91.278 71.9408 90.948 68.2823C90.9099 67.6583 90.8052 67.0417 90.801 66.4166C90.6529 63.2595 88.8835 60.2578 86.2382 58.5444C86.252 57.289 86.2065 56.0325 86.2657 54.7781Z" fill="#E94413"/>
<path d="M110.247 54.9944C112.672 56.2118 114.718 58.1727 116.016 60.5566C116.962 58.9024 118.211 57.4143 119.743 56.2731C119.813 57.7898 119.667 59.3139 119.823 60.8253C118.541 62.5006 117.78 64.5715 117.726 66.6847C117.619 69.5785 118.869 72.4596 121.001 74.4099C120.804 75.751 121 77.1143 120.896 78.4639C118.018 76.7399 115.828 73.9033 114.913 70.6742C114.452 69.1248 114.387 67.4991 114.272 65.8978C113.986 63.1267 112.472 60.527 110.23 58.8792C110.259 57.5835 110.237 56.289 110.247 54.9944Z" fill="#F05F0D"/>
<path d="M157.222 54.9966C159.931 56.3536 162.16 58.6476 163.417 61.406C164.192 63.0888 164.61 64.9375 164.628 66.7906C164.663 67.2803 164.519 67.7911 164.164 68.1412C163.581 68.7705 162.507 68.8149 161.873 68.2406C161.444 67.8874 161.27 67.3194 161.297 66.7779C161.264 63.6884 159.677 60.6857 157.187 58.8687C157.205 57.5773 157.169 56.2859 157.222 54.9966Z" fill="#FD9201"/>
<path d="M139.51 60.5172C140.381 58.9805 141.525 57.5738 142.93 56.5002L142.988 56.5161C143.108 58.0296 142.904 59.559 143.104 61.0641C141.867 62.7796 141.164 64.8812 141.183 66.9997C141.169 69.4936 142.159 71.9537 143.837 73.7888C143.632 75.2018 143.867 76.636 143.717 78.0543C140.916 76.1537 138.875 73.1637 138.164 69.8511C137.937 68.8823 137.895 67.8849 137.79 66.8992C137.778 65.2185 137.328 63.5527 136.518 62.0815C136.651 60.7616 136.523 59.4289 136.584 58.1058C136.612 57.7842 136.937 57.615 137.135 57.3993C138.067 58.3215 138.874 59.3697 139.51 60.5172Z" fill="#F77907"/>
<path d="M71.9988 56.8526L72.0697 56.8167L72.1289 56.8325C72.2283 58.4148 72.0951 60.0023 72.2008 61.5846L72.1913 61.6766C71.5303 62.8263 71.0173 64.0754 70.8227 65.3953C70.4293 67.7751 70.956 70.2743 72.2273 72.3188C72.0538 73.9423 72.2569 75.5806 72.1194 77.2073C70.5255 75.8588 69.2457 74.138 68.4303 72.2141C67.3367 69.6598 67.0796 66.7597 67.6889 64.05C68.3023 61.2694 69.8465 58.7109 71.9988 56.8526Z" fill="#E32A19"/>
<path d="M99.2953 61.5363C99.7564 60.8361 100.807 60.6764 101.483 61.1481C101.843 61.4295 102.003 61.8811 102.164 62.2925C102.873 64.3581 103.554 66.4332 104.269 68.4967C104.999 66.3455 105.713 64.1878 106.447 62.0366C106.592 61.5701 106.905 61.1185 107.389 60.962C108.092 60.7134 108.953 61.0349 109.272 61.7203C109.541 62.2227 109.395 62.8139 109.207 63.3174C108.334 65.6865 107.453 68.0525 106.577 70.4206C106.329 71.0616 106.163 71.7586 105.72 72.3022C105.006 73.1801 103.496 73.2033 102.753 72.353C102.456 72.0209 102.282 71.602 102.127 71.1917C101.159 68.5232 100.167 65.8653 99.198 63.1979C99.0023 62.6659 98.9272 62.0143 99.2953 61.5363Z" fill="black"/>
<path d="M126.153 61.441C126.712 60.8953 127.601 60.8138 128.312 61.0761C128.9 61.3025 129.277 61.8514 129.506 62.4151C130.497 64.9112 131.516 67.3957 132.522 69.8865C132.75 70.4788 133.068 71.0954 132.949 71.749C132.774 72.52 131.943 73.0595 131.165 72.8987C130.725 72.8331 130.352 72.5243 130.154 72.1329C129.834 71.511 129.609 70.8447 129.357 70.1942C128.133 70.1942 126.91 70.1964 125.688 70.1932C125.395 70.9113 125.192 71.675 124.79 72.3445C124.305 73.1367 123.048 73.0806 122.492 72.3931C122.031 71.9161 122.067 71.181 122.313 70.6089C123.285 68.1297 124.263 65.6548 125.237 63.1777C125.485 62.5738 125.672 61.9085 126.153 61.441ZM126.599 67.6157C127.203 67.6178 127.807 67.6125 128.412 67.621C128.129 66.7875 127.815 65.9647 127.513 65.1376C127.166 65.9467 126.909 66.7917 126.599 67.6157Z" fill="black"/>
<path d="M150.059 61.0393C151.318 60.8743 152.675 60.9526 153.793 61.6105C154.621 62.0917 155.308 62.9336 155.365 63.9183C155.426 64.6037 154.955 65.3102 154.278 65.4731C153.839 65.5704 153.323 65.491 153.006 65.1494C152.538 64.6819 152.42 63.9194 151.814 63.5851C151.32 63.3969 150.757 63.4085 150.255 63.5523C149.95 63.6581 149.592 63.8845 149.595 64.2472C149.629 64.5793 149.979 64.738 150.246 64.8617C150.988 65.141 151.778 65.2626 152.535 65.4963C153.627 65.8094 154.805 66.2758 155.403 67.307C156.22 68.7634 155.857 70.7973 154.535 71.8402C153.334 72.8122 151.692 73.0004 150.203 72.8291C149.064 72.7022 147.928 72.2008 147.218 71.2754C146.705 70.6112 146.311 69.746 146.504 68.8946C146.709 68.0368 147.802 67.5894 148.557 68.0347C149.153 68.3626 149.284 69.0786 149.601 69.6233C149.809 70.0125 150.217 70.2706 150.653 70.3235C151.281 70.4028 151.999 70.3415 152.483 69.8888C152.817 69.599 152.868 69.0057 152.519 68.7074C152.102 68.3404 151.528 68.2568 151.011 68.1109C149.805 67.8126 148.498 67.5397 147.568 66.6555C146.354 65.5365 146.359 63.4275 147.485 62.2483C148.15 61.5343 149.11 61.1737 150.059 61.0393Z" fill="black"/>
<path d="M156.588 85.2141C157.614 84.5129 159.137 84.6303 160.028 85.5061C159.811 85.7218 159.59 85.9323 159.369 86.1428C158.867 85.5388 157.924 85.3379 157.255 85.781C156.752 86.0846 156.646 86.8979 157.122 87.2755C157.552 87.6097 158.11 87.6944 158.609 87.8847C159.165 88.0635 159.728 88.3966 159.956 88.9614C160.239 89.7198 160.037 90.6748 159.369 91.1688C158.248 91.9705 156.53 91.7389 155.635 90.696C155.873 90.4908 156.114 90.2877 156.355 90.0847C156.856 90.77 157.862 91.0905 158.618 90.6357C159.175 90.3385 159.322 89.4755 158.841 89.0471C158.429 88.6822 157.864 88.5965 157.365 88.4104C156.829 88.2369 156.278 87.9419 156.032 87.4077C155.701 86.6631 155.896 85.6869 156.588 85.2141Z" fill="black"/>
<path d="M139.071 84.9347C139.412 84.9337 139.753 84.9337 140.096 84.9294C140.769 86.7105 141.403 88.5054 142.076 90.2876C142.748 88.5065 143.385 86.7137 144.053 84.9316C144.385 84.9326 144.718 84.9337 145.051 84.9379C144.199 87.1188 143.339 89.2965 142.486 91.4774C142.198 91.4774 141.91 91.4785 141.623 91.4795C140.771 89.2986 139.922 87.1167 139.071 84.9347Z" fill="black"/>
<path d="M149.608 84.9443C149.891 84.9359 150.174 84.9316 150.458 84.9285C151.407 87.1073 152.34 89.2934 153.274 91.4786C152.924 91.4786 152.575 91.4786 152.225 91.4786C152.004 90.9444 151.785 90.4103 151.561 89.8773C150.529 89.8826 149.497 89.8741 148.466 89.8826C148.251 90.4177 148.038 90.954 147.809 91.4828C147.467 91.4786 147.126 91.4775 146.784 91.4775C147.723 89.2987 148.683 87.1284 149.608 84.9443ZM149.675 86.8714C149.391 87.6012 149.082 88.3225 148.812 89.0576C149.616 89.0586 150.419 89.0618 151.223 89.0555C150.829 88.0666 150.436 87.0766 150.043 86.0877C149.874 86.3235 149.779 86.6017 149.675 86.8714Z" fill="black"/>
<path d="M80.2603 61.0412C80.7933 60.9069 81.4068 61.092 81.7379 61.5394C82.181 62.1666 82.0107 63.1862 81.2936 63.5374C80.5458 63.9657 79.412 63.5532 79.2618 62.6637C79.082 61.9603 79.558 61.1999 80.2603 61.0412Z" fill="#E2271A"/>
<path d="M80.0361 64.4225C80.5597 64.2004 81.2239 64.3146 81.6068 64.7461C81.8765 65.0349 81.9822 65.4399 81.9738 65.8281C81.9727 67.5563 81.9706 69.2856 81.9738 71.0149C81.9812 71.4876 81.9907 72.0048 81.6988 72.4057C81.2873 73.0086 80.3577 73.1429 79.7855 72.6955C79.4005 72.4078 79.2323 71.9118 79.2365 71.4453C79.2334 69.6092 79.2386 67.7731 79.2344 65.937C79.1953 65.3384 79.4459 64.6626 80.0361 64.4225Z" fill="#E2271A"/>
<path d="M71.9258 84.9366C72.2336 84.9355 72.5424 84.9355 72.8502 84.9355C72.8523 87.1175 72.8512 89.2984 72.8512 91.4804C72.5424 91.4804 72.2346 91.4804 71.9258 91.4804C71.9258 89.2984 71.9258 87.1175 71.9258 84.9366Z" fill="#E2271A"/>
<path d="M96.1646 73.8754C96.1689 73.5962 96.2038 73.3202 96.244 73.0452C97.3101 74.4265 98.7178 75.5529 100.33 76.2298L100.329 76.2467C100.241 77.3922 100.346 78.5439 100.264 79.6904L100.226 79.7232C98.7432 79.3097 97.3735 78.5376 96.1445 77.6185C96.189 76.3715 96.1678 75.1235 96.1646 73.8754Z" fill="#EB4A12"/>
<path d="M92.513 87.0586C93.3571 86.8301 94.3354 87.0364 94.9521 87.6752C95.7951 88.5351 95.776 90.072 94.9225 90.9192C93.9758 91.8806 92.1894 91.8256 91.3432 90.7584C90.6832 89.9387 90.6663 88.6621 91.32 87.8349C91.614 87.4489 92.0498 87.1876 92.513 87.0586ZM92.7193 87.7852C91.6775 88.1258 91.4437 89.6076 92.128 90.3861C92.5744 90.9213 93.4322 91.007 94.0012 90.623C94.7754 90.0868 94.8654 88.8524 94.2508 88.1618C93.8785 87.7376 93.245 87.6128 92.7193 87.7852Z" fill="#EB4A12"/>
<path d="M120.896 78.4622C120.999 77.1126 120.803 75.7493 121 74.4082C122.788 76.0307 125.16 77.0037 127.58 77.0354C128.065 77.0143 128.577 77.138 128.928 77.4934C129.503 78.0148 129.616 78.9519 129.191 79.5992C128.896 80.073 128.349 80.3713 127.79 80.3713C125.375 80.3787 122.964 79.7092 120.896 78.4622Z" fill="#F3680B"/>
<path d="M76.7143 79.7491C76.7471 78.5751 76.6403 77.3948 76.7714 76.2261C77.8608 76.6692 79.0158 76.9664 80.194 77.0214C80.6192 77.0521 81.0719 76.996 81.4664 77.1949C82.1613 77.5069 82.5664 78.3319 82.3823 79.0733C82.2353 79.7925 81.5584 80.3541 80.8244 80.3679C79.4336 80.3816 78.0417 80.1648 76.7143 79.7491Z" fill="#E63517"/>
<path d="M100.328 76.2493C101.558 76.7443 102.872 77.0383 104.2 77.0415C104.753 77.0182 105.312 77.2794 105.627 77.7385C106.056 78.3265 106.032 79.2023 105.563 79.7607C105.239 80.1647 104.723 80.3911 104.207 80.3741C102.886 80.3562 101.554 80.1795 100.298 79.7618L100.264 79.693C100.345 78.5465 100.24 77.3947 100.328 76.2493Z" fill="#EC4F11"/>
<path d="M148.441 76.7104L148.509 76.6882C149.143 76.7993 149.769 76.9654 150.414 77.0013C151.002 77.0658 151.659 76.9421 152.169 77.3144C152.926 77.7925 153.141 78.9126 152.62 79.6392C152.304 80.113 151.737 80.3923 151.17 80.369C150.251 80.3637 149.335 80.2558 148.435 80.0781L148.434 80.0697C148.408 78.9496 148.397 77.8284 148.441 76.7104Z" fill="#FA8504"/>
<path d="M117.56 85.0024C117.955 84.7972 118.48 85.1674 118.388 85.6138C118.334 86.0527 117.721 86.2431 117.414 85.9374C117.112 85.6868 117.198 85.1505 117.56 85.0024Z" fill="#F67508"/>
<path d="M117.369 87.1008C117.661 87.0924 117.954 87.0913 118.248 87.0913C118.244 88.5562 118.252 90.0201 118.244 91.4839C117.953 91.4818 117.664 91.4807 117.374 91.4818C117.37 90.0211 117.382 88.5604 117.369 87.1008Z" fill="#F67508"/>
<path d="M112.445 85.8353C112.735 85.8342 113.026 85.8342 113.317 85.8353C113.316 86.253 113.317 86.6719 113.316 87.0907C113.705 87.0907 114.093 87.0907 114.481 87.0907C114.48 87.3329 114.479 87.5762 114.478 87.8194C114.091 87.8173 113.703 87.8173 113.317 87.8184C113.318 88.563 113.315 89.3086 113.316 90.0543C113.317 90.2933 113.336 90.5916 113.566 90.7312C113.84 90.8771 114.157 90.7809 114.443 90.7259C114.45 90.966 114.46 91.2061 114.47 91.4472C113.972 91.5667 113.4 91.6461 112.943 91.3563C112.579 91.1289 112.447 90.6751 112.446 90.2679C112.44 89.4504 112.447 88.6338 112.445 87.8173C112.162 87.8173 111.882 87.8173 111.601 87.8194C111.599 87.5762 111.599 87.3329 111.598 87.0907C111.879 87.0907 112.161 87.0907 112.445 87.0907C112.444 86.6719 112.444 86.253 112.445 85.8353Z" fill="#F46C0A"/>
<path d="M84.5891 87.8074C85.0397 86.9623 86.2508 86.7032 87.0187 87.2606C87.4767 87.5769 87.6639 88.1512 87.6702 88.6874C87.6744 89.6172 87.6723 90.5479 87.6702 91.4787C87.3772 91.4776 87.0842 91.4776 86.7913 91.4808C86.7786 90.6526 86.7891 89.8234 86.787 88.9952C86.7807 88.6187 86.7352 88.1946 86.4401 87.927C86.0266 87.5748 85.3412 87.6647 84.9921 88.0676C84.7097 88.3733 84.6315 88.8049 84.6315 89.2068C84.6272 89.9641 84.6325 90.7203 84.6304 91.4776C84.3395 91.4776 84.0487 91.4776 83.7589 91.4776C83.7419 90.0148 83.7969 88.5499 83.7197 87.0882C83.9979 87.0882 84.2771 87.0882 84.5574 87.0882C84.5712 87.3273 84.5828 87.5673 84.5891 87.8074Z" fill="#E73D15"/>
<path d="M105.334 87.6166C105.928 87.1153 106.729 86.8868 107.498 86.9894C108.017 87.0444 108.538 87.3247 108.777 87.8038C109.04 88.2957 108.974 88.871 108.982 89.4083C108.989 90.099 108.95 90.7918 109.03 91.4793C108.763 91.4772 108.496 91.4761 108.23 91.4751C108.205 91.2709 108.183 91.07 108.165 90.8669C107.586 91.6813 106.339 91.8178 105.551 91.2392C105.094 90.9007 104.989 90.2524 105.17 89.7383C105.299 89.402 105.615 89.1799 105.937 89.0434C106.636 88.7579 107.406 88.7674 108.148 88.7494C108.129 88.4247 108.08 88.0418 107.764 87.8662C107.134 87.4907 106.323 87.7277 105.801 88.1878C105.645 87.9974 105.488 87.807 105.334 87.6166ZM106.543 89.5617C106.285 89.6537 106.004 89.8473 105.992 90.1487C105.937 90.4671 106.177 90.759 106.475 90.8383C106.964 90.9748 107.574 90.8711 107.883 90.4354C108.12 90.1392 108.131 89.7457 108.146 89.3851C107.61 89.4009 107.056 89.383 106.543 89.5617Z" fill="#F1630C"/>
<path d="M128.481 87.9819C129.154 86.8703 130.875 86.6207 131.842 87.4806C132.412 87.9978 132.55 88.8143 132.512 89.5494C131.34 89.5537 130.168 89.5367 128.996 89.5568C129.073 90.1597 129.514 90.7087 130.127 90.8229C130.732 90.9741 131.354 90.678 131.723 90.1978C131.929 90.3617 132.134 90.5257 132.34 90.6917C131.568 91.7568 129.887 91.8965 128.894 91.0725C128.017 90.3321 127.892 88.936 128.481 87.9819ZM129.003 88.8831C129.877 88.8916 130.752 88.8863 131.626 88.8852C131.598 88.3299 131.241 87.7588 130.651 87.6879C129.879 87.5229 129.103 88.111 129.003 88.8831Z" fill="#FB8B03"/>
<path d="M98.0898 87.0881C98.4177 87.0881 98.7467 87.0881 99.0756 87.0966C99.4881 88.24 99.9207 89.377 100.345 90.5161C100.807 89.3844 101.209 88.2294 101.649 87.0881C101.962 87.0892 102.275 87.0881 102.588 87.0892C102.006 88.5541 101.414 90.0137 100.83 91.4786C100.512 91.4786 100.194 91.4786 99.8742 91.4786C99.2808 90.0148 98.6822 88.553 98.0898 87.0881Z" fill="#EE560F"/>
<path d="M121.085 87.09C121.41 87.0889 121.735 87.0889 122.062 87.0889C122.492 88.2376 122.916 89.3884 123.348 90.536C123.783 89.3884 124.211 88.2376 124.642 87.0889C124.956 87.0879 125.27 87.0879 125.585 87.0889C124.995 88.5528 124.415 90.0208 123.819 91.4826C123.499 91.4783 123.179 91.4784 122.86 91.4709C122.281 90.006 121.674 88.5517 121.085 87.09Z" fill="#F87F05"/>
<line x1="67.3662" y1="103.032" x2="164.634" y2="103.032" stroke="#CAC4D0" stroke-width="0.68984"/>
<path d="M73.319 130.414V115.128H78.5642C83.2742 115.128 85.9075 117.483 85.9075 122.407C85.9075 127.524 83.6596 130.414 78.5642 130.414H73.319ZM75.3529 116.841V128.701H78.7355C80.1271 128.701 83.8737 128.316 83.8737 122.685C83.8737 119.046 82.5249 116.841 78.7783 116.841H75.3529ZM88.3126 130.414V119.345H90.1323V130.414H88.3126ZM90.1323 115.128V117.354H88.3126V115.128H90.1323ZM97.5167 128.937C99.9145 128.937 100.814 126.731 100.814 124.655C100.814 122.707 99.9573 120.694 97.6665 120.694C95.3329 120.694 94.3909 122.6 94.3909 124.719C94.3909 126.71 95.1189 128.937 97.5167 128.937ZM102.612 119.345V129.472C102.612 133.069 100.964 134.91 97.4738 134.91C95.3972 134.91 92.9994 134.075 92.8923 131.656H94.7121C94.7977 132.983 96.382 133.454 97.5809 133.454C99.9573 133.454 100.899 131.741 100.899 129.258V128.53H100.856C100.257 129.879 98.8012 130.542 97.4096 130.542C94.1126 130.542 92.4641 127.952 92.4641 124.933C92.4641 122.321 93.7487 119.088 97.5809 119.088C98.9725 119.088 100.214 119.709 100.878 120.93H100.899V119.345H102.612ZM105.576 130.414V119.345H107.396V130.414H105.576ZM107.396 115.128V117.354H105.576V115.128H107.396ZM112.853 116.027V119.345H115.059V120.951H112.853V127.823C112.853 128.658 113.089 128.808 114.224 128.808H115.059V130.414H113.667C111.783 130.414 111.034 130.028 111.034 127.995V120.951H109.15V119.345H111.034V116.027H112.853ZM117.299 130.414V119.345H119.119V130.414H117.299ZM119.119 115.128V117.354H117.299V115.128H119.119ZM121.151 130.414V129.022L127.831 120.951H121.579V119.345H130.186V120.587L123.421 128.808H130.486V130.414H121.151ZM132.556 130.414V119.345H134.376V130.414H132.556ZM134.376 115.128V117.354H132.556V115.128H134.376ZM137.307 130.414V119.345H139.02V121.101H139.063C139.833 119.731 141.075 119.088 142.659 119.088C145.571 119.088 146.47 120.758 146.47 123.135V130.414H144.65V122.921C144.65 121.572 143.794 120.694 142.402 120.694C140.197 120.694 139.127 122.171 139.127 124.162V130.414H137.307ZM153.768 128.937C156.166 128.937 157.065 126.731 157.065 124.655C157.065 122.707 156.209 120.694 153.918 120.694C151.585 120.694 150.643 122.6 150.643 124.719C150.643 126.71 151.371 128.937 153.768 128.937ZM158.864 119.345V129.472C158.864 133.069 157.215 134.91 153.726 134.91C151.649 134.91 149.251 134.075 149.144 131.656H150.964C151.049 132.983 152.634 133.454 153.833 133.454C156.209 133.454 157.151 131.741 157.151 129.258V128.53H157.108C156.509 129.879 155.053 130.542 153.661 130.542C150.364 130.542 148.716 127.952 148.716 124.933C148.716 122.321 150 119.088 153.833 119.088C155.224 119.088 156.466 119.709 157.13 120.93H157.151V119.345H158.864ZM73.7162 138.027V141.345H75.9213V142.951H73.7162V149.823C73.7162 150.658 73.9517 150.808 75.0864 150.808H75.9213V152.414H74.5297C72.6457 152.414 71.8964 152.028 71.8964 149.995V142.951H70.0124V141.345H71.8964V138.027H73.7162ZM78.0551 152.414V137.128H79.8748V142.972H79.9177C80.5171 141.645 82.08 141.088 83.4073 141.088C86.3189 141.088 87.2181 142.758 87.2181 145.135V152.414H85.3984V144.921C85.3984 143.572 84.542 142.694 83.1504 142.694C80.9453 142.694 79.8748 144.171 79.8748 146.162V152.414H78.0551ZM97.7064 148.903H99.5048C99.0124 151.343 97.2568 152.671 94.7734 152.671C91.2409 152.671 89.571 150.23 89.464 146.847C89.464 143.529 91.6477 141.088 94.6663 141.088C98.5842 141.088 99.7831 144.749 99.676 147.426H91.3908C91.3265 149.352 92.4184 151.065 94.8376 151.065C96.3362 151.065 97.3853 150.337 97.7064 148.903ZM91.3908 145.82H97.7492C97.6636 144.086 96.3576 142.694 94.5593 142.694C92.6539 142.694 91.5192 144.129 91.3908 145.82ZM108.494 152.414V142.951H106.632V141.345H108.494V139.697C108.494 137.899 109.565 136.957 111.556 136.957C111.899 136.957 112.391 137.021 112.733 137.128V138.712C112.412 138.605 112.027 138.562 111.706 138.562C110.828 138.562 110.314 138.841 110.314 139.804V141.345H112.455V142.951H110.314V152.414H108.494ZM123.355 141.345V152.414H121.643V150.658H121.6C120.829 152.028 119.587 152.671 118.003 152.671C115.091 152.671 114.192 151.001 114.192 148.624V141.345H116.012V148.839C116.012 150.187 116.868 151.065 118.26 151.065C120.465 151.065 121.535 149.588 121.535 147.597V141.345H123.355ZM128.727 138.027V141.345H130.932V142.951H128.727V149.823C128.727 150.658 128.962 150.808 130.097 150.808H130.932V152.414H129.54C127.656 152.414 126.907 152.028 126.907 149.995V142.951H125.023V141.345H126.907V138.027H128.727ZM142.229 141.345V152.414H140.516V150.658H140.473C139.702 152.028 138.461 152.671 136.876 152.671C133.965 152.671 133.066 151.001 133.066 148.624V141.345H134.885V148.839C134.885 150.187 135.742 151.065 137.133 151.065C139.338 151.065 140.409 149.588 140.409 147.597V141.345H142.229ZM145.01 152.414V141.345H146.722V143.679H146.765C147.643 141.902 148.863 141.024 150.833 141.088V143.015C147.9 143.015 146.83 144.685 146.83 147.49V152.414H145.01ZM159.582 148.903H161.381C160.888 151.343 159.133 152.671 156.649 152.671C153.117 152.671 151.447 150.23 151.34 146.847C151.34 143.529 153.523 141.088 156.542 141.088C160.46 141.088 161.659 144.749 161.552 147.426H153.267C153.202 149.352 154.294 151.065 156.713 151.065C158.212 151.065 159.261 150.337 159.582 148.903ZM153.267 145.82H159.625C159.539 144.086 158.233 142.694 156.435 142.694C154.53 142.694 153.395 144.129 153.267 145.82ZM89.5387 175.414V161.841H84.4434V160.128H96.6679V161.841H91.5726V175.414H89.5387ZM95.1935 169.89C95.1935 166.636 97.056 164.088 100.567 164.088C104.078 164.088 105.941 166.636 105.941 169.89C105.941 173.123 104.078 175.671 100.567 175.671C97.056 175.671 95.1935 173.123 95.1935 169.89ZM97.1203 169.89C97.1203 172.566 98.6617 174.065 100.567 174.065C102.473 174.065 104.014 172.566 104.014 169.89C104.014 167.193 102.473 165.694 100.567 165.694C98.6617 165.694 97.1203 167.193 97.1203 169.89ZM118.089 160.128V175.414H116.27V173.915H116.227C115.627 175.136 114.214 175.671 112.694 175.671C109.29 175.671 107.599 172.973 107.599 169.847C107.599 166.722 109.269 164.088 112.652 164.088C113.786 164.088 115.413 164.517 116.227 165.823H116.27V160.128H118.089ZM109.526 169.976C109.526 172.053 110.596 174.065 112.951 174.065C115.392 174.065 116.334 171.967 116.334 169.89C116.334 167.707 115.349 165.694 112.844 165.694C110.361 165.694 109.526 167.814 109.526 169.976ZM127.852 171.56V169.698C127.146 170.211 125.775 170.233 124.555 170.447C123.356 170.661 122.329 171.089 122.329 172.438C122.329 173.637 123.356 174.065 124.47 174.065C126.867 174.065 127.852 172.566 127.852 171.56ZM130.807 173.958V175.371C130.485 175.564 130.079 175.671 129.501 175.671C128.559 175.671 127.959 175.157 127.959 173.958C126.953 175.136 125.604 175.671 124.063 175.671C122.05 175.671 120.402 174.772 120.402 172.566C120.402 170.062 122.264 169.526 124.148 169.162C126.161 168.777 127.874 168.905 127.874 167.535C127.874 165.951 126.568 165.694 125.412 165.694C123.87 165.694 122.735 166.165 122.65 167.792H120.83C120.937 165.052 123.057 164.088 125.519 164.088C127.51 164.088 129.672 164.538 129.672 167.129V172.823C129.672 173.68 129.672 174.065 130.25 174.065C130.4 174.065 130.571 174.044 130.807 173.958ZM141.775 164.345L136.958 176.891C136.123 179.053 135.374 179.845 133.747 179.845C133.319 179.845 132.891 179.803 132.484 179.653V177.983C132.826 178.09 133.19 178.24 133.554 178.24C134.304 178.24 134.71 177.876 135.053 177.234L135.802 175.35L131.413 164.345H133.469L136.701 173.401H136.744L139.849 164.345H141.775ZM145.848 160.128V164.838L145.313 171.496H144.35L143.814 164.838V160.128H145.848ZM143.643 175.414V173.037H146.019V175.414H143.643Z" fill="black"/>
<defs>
<filter id="filter0_f_853_6183" x="-67.992" y="-94.2879" width="354.273" height="407.576" filterUnits="userSpaceOnUse" color-interpolation-filters="sRGB">
<feFlood flood-opacity="0" result="BackgroundImageFix"/>
<feBlend mode="normal" in="SourceGraphic" in2="BackgroundImageFix" result="shape"/>
<feGaussianBlur stdDeviation="56.1405" result="effect1_foregroundBlur_853_6183"/>
</filter>
<linearGradient id="paint0_linear_853_6183" x1="109.145" y1="17.9932" x2="109.145" y2="201.007" gradientUnits="userSpaceOnUse">
<stop stop-color="#FD9201" stop-opacity="0"/>
<stop offset="0.5" stop-color="#FD9201"/>
<stop offset="1" stop-color="#E32A19"/>
</linearGradient>
</defs>
</svg>
